<svg width="39" height="22" viewBox="0 0 39 22" fill="none" xmlns="http://www.w3.org/2000/svg">
<g clip-path="url(#clip0_211_2081)">
<path d="M38.8874 7.9505C38.8913 7.92147 38.8913 7.89213 38.8874 7.86311C38.8911 7.83946 38.8911 7.81534 38.8874 7.79164L38.6037 5.75031C38.5628 5.50609 38.4534 5.27783 38.2878 5.09105L38.2391 5.03545L38.1501 4.94807L33.2403 0.801883L33.378 0.936923C33.2653 0.804751 33.1239 0.699031 32.964 0.627551C32.8042 0.55607 32.63 0.520645 32.4544 0.523889H30.9636C30.7212 0.51918 30.4843 0.59474 30.2911 0.738351C30.0883 0.595605 29.8441 0.520432 29.5944 0.523889H28.1036C27.9081 0.520779 27.7152 0.568351 27.5445 0.661802C27.3738 0.755252 27.2313 0.891263 27.1314 1.05606C26.9774 1.29144 26.9196 1.57503 26.9693 1.85035L27.1557 3.1371C27.0322 3.06849 26.8925 3.03289 26.7506 3.03385H19.5317C19.2727 3.03544 19.0197 3.10987 18.8025 3.2483C18.5926 3.37715 18.424 3.56165 18.3164 3.78047L17.7574 3.31184C17.5374 3.11226 17.2469 3.00408 16.9472 3.01002H5.62067C5.36075 3.01466 5.1066 3.08585 4.88341 3.21653C4.57806 3.39174 4.35429 3.67663 4.25954 4.01082L0.662273 15.806C0.595059 16.0004 0.588447 16.21 0.643284 16.4081C0.698121 16.6061 0.811922 16.7837 0.970151 16.918C1.01138 16.9523 1.05467 16.9841 1.09979 17.0133C1.09979 17.0133 1.02686 16.9657 0.986346 16.926L5.89616 21.0801C6.10385 21.2676 6.3754 21.3724 6.65769 21.374H18.0734C18.3341 21.3673 18.5884 21.2934 18.8107 21.1595C18.9364 21.0922 19.0488 21.0034 19.1428 20.8974L19.1834 20.8418L19.2482 20.7624L19.2968 20.675L19.8315 21.1278C20.0362 21.3078 20.3019 21.4068 20.5769 21.4058H32.0168C32.2773 21.3973 32.5311 21.3234 32.7541 21.1913C32.877 21.1198 32.9888 21.0316 33.0863 20.9292L33.1268 20.8736L33.1916 20.7942C33.2261 20.7439 33.256 20.6908 33.2807 20.6353C33.3072 20.5871 33.3289 20.5366 33.3456 20.4844L36.6269 9.71384V9.61851C36.6309 9.58155 36.6309 9.54427 36.6269 9.50731V9.43584C36.6308 9.41214 36.6308 9.38802 36.6269 9.36432C36.6305 9.3141 36.6305 9.26367 36.6269 9.2134H37.6801C37.7717 9.22164 37.8639 9.22164 37.9556 9.2134H38.0285C38.0878 9.19606 38.1449 9.17205 38.1987 9.14193H38.2797L38.4255 9.03073L38.4903 8.98307L38.6037 8.84008V8.79247L38.6848 8.65741C38.6802 8.63115 38.6802 8.60427 38.6848 8.57801C38.6805 8.56511 38.6805 8.55117 38.6848 8.53828C38.702 8.49171 38.7155 8.44389 38.7253 8.39529C38.7215 8.37963 38.7215 8.36329 38.7253 8.34762C38.7213 8.32398 38.7213 8.2998 38.7253 8.27616C38.7253 8.27616 38.8874 7.96637 38.8874 7.9505Z" fill="black"/>
<path d="M17.2794 3.91554C17.3224 3.95367 17.3524 4.00381 17.3655 4.0592C17.3785 4.11459 17.3739 4.17256 17.3523 4.22531L13.7632 16.0126C13.718 16.1413 13.6255 16.2488 13.5039 16.3144C13.4049 16.3793 13.2904 16.4176 13.1717 16.4256H1.76415C1.66672 16.421 1.57443 16.3814 1.50488 16.3144C1.46351 16.2769 1.43447 16.2281 1.42148 16.1744C1.40849 16.1206 1.41215 16.0643 1.43197 16.0126L5.02924 4.22531C5.07068 4.095 5.16024 3.98453 5.28039 3.91554C5.38098 3.85531 5.49496 3.81987 5.61257 3.81228H17.0201C17.1168 3.81319 17.2095 3.85011 17.2794 3.91554ZM11.3244 13.6376L13.4715 6.60023H7.45984L5.32089 13.6376H11.3244ZM28.1684 4.03468C28.2073 4.07902 28.256 4.11419 28.3107 4.13756C28.3654 4.16094 28.4247 4.17193 28.4844 4.16971H29.9671C30.0235 4.17025 30.0791 4.15668 30.1288 4.13027C30.1784 4.10386 30.2203 4.06549 30.2506 4.01879C30.2769 3.98231 30.2956 3.94101 30.3053 3.89735C30.315 3.85369 30.3157 3.80856 30.3073 3.76462L30.0157 1.6677C29.9879 1.57065 29.938 1.48103 29.8699 1.40558C29.8309 1.36124 29.7823 1.32607 29.7276 1.30269C29.6729 1.27932 29.6135 1.26833 29.5539 1.27055H28.0712C28.0147 1.27001 27.9591 1.28359 27.9095 1.30999C27.8599 1.3364 27.8179 1.37476 27.7876 1.42147C27.7309 1.53267 27.7066 1.60415 27.7309 1.6677L28.0307 3.76462C28.0461 3.86673 28.0943 3.96134 28.1684 4.03468ZM32.8757 1.65181C32.8479 1.55476 32.798 1.46514 32.7298 1.38969C32.6925 1.34551 32.6453 1.31036 32.5919 1.28694C32.5386 1.26353 32.4804 1.25248 32.422 1.25467H30.9312C30.8757 1.25312 30.8207 1.26632 30.7722 1.29289C30.7237 1.31946 30.6835 1.3584 30.6557 1.40558C30.6018 1.47605 30.5785 1.56456 30.5909 1.65181L30.8907 3.74873C30.9095 3.84976 30.9572 3.94344 31.0284 4.01879C31.068 4.06227 31.1168 4.09684 31.1714 4.12015C31.2259 4.14345 31.2849 4.15494 31.3444 4.15381H32.8352C32.8906 4.15454 32.9451 4.14098 32.9934 4.11449C33.0418 4.088 33.0822 4.04953 33.1106 4.00291C33.1388 3.96737 33.1585 3.92609 33.1683 3.88211C33.1782 3.83814 33.1778 3.79257 33.1673 3.74873L32.8757 1.65181ZM26.864 4.82897L26.7181 3.79639H19.5317C19.4189 3.80249 19.3097 3.83815 19.2157 3.89965C19.1561 3.93155 19.1041 3.97577 19.0636 4.02925C19.023 4.08273 18.9948 4.1442 18.9808 4.20942L18.3813 6.17925C18.3573 6.22848 18.3491 6.28371 18.3578 6.33758C18.3665 6.39146 18.3916 6.44147 18.4299 6.4811C18.4982 6.54406 18.5874 6.58076 18.681 6.58436H27.415L25.2679 13.6218H16.5583C16.446 13.6243 16.3366 13.6573 16.2424 13.7171C16.1278 13.7884 16.0441 13.8987 16.0074 14.0268L15.3997 15.9967C15.3799 16.0472 15.3747 16.1022 15.3847 16.1554C15.3947 16.2087 15.4195 16.2582 15.4564 16.2985C15.5226 16.3657 15.6125 16.4055 15.7076 16.4097H27.1476C27.2659 16.3997 27.3799 16.3616 27.4797 16.2985C27.5994 16.2326 27.6891 16.1248 27.7309 15.9967L31.0203 5.22611H27.3177C27.259 5.22725 27.2006 5.21656 27.1463 5.1947C27.0919 5.17284 27.0428 5.14027 27.0018 5.09902C26.9348 5.02699 26.8874 4.93958 26.864 4.84486V4.82897Z" fill="white"/>
</g>
<defs>
<clipPath id="clip0_211_2081">
<rect width="38.2838" height="20.8821" fill="white" transform="translate(0.606506 0.523682)"/>
</clipPath>
</defs>
</svg>
